<?xml version="1.0" encoding="iso-8859-1"?>
<!-- Generator: Adobe Illustrator 19.0.0, SVG Export Plug-In . SVG Version: 6.00 Build 0)  -->
<svg version="1.1" id="Capa_1" xmlns="http://www.w3.org/2000/svg" xmlns:xlink="http://www.w3.org/1999/xlink" x="0px" y="0px"
	 viewBox="0 0 512 512" style="enable-background:new 0 0 512 512;" xml:space="preserve">
<path style="fill:#3C6EAA;" d="M389.893,152.435h-21.071c-3.405-12.027-8.21-23.458-14.239-34.128l14.805-14.702
	c6.029-5.977,6.029-15.721,0.01-21.709l-39.221-38.964c-5.967-5.936-15.597-5.936-21.565-0.01L293.663,57.78
	c-10.731-5.988-22.244-10.762-34.334-14.147V22.798c0-8.447-6.852-15.299-15.299-15.299h-55.559
	c-8.447,0-15.299,6.852-15.299,15.299v20.834c-12.11,3.385-23.602,8.159-34.354,14.147l-14.929-14.846
	c-5.967-5.926-15.597-5.926-21.565,0L63.103,81.897c-6.019,5.988-6.019,15.731,0,21.709l14.805,14.702
	c-6.019,10.669-10.834,22.1-14.25,34.128h-21.05c-8.447,0-15.299,6.842-15.299,15.299v54.983c0,8.447,6.852,15.299,15.299,15.299
	h21.05c3.416,12.017,8.231,23.458,14.25,34.118l-14.805,14.702c-6.019,5.988-6.019,15.731,0,21.709l39.221,38.963
	c5.967,5.926,15.597,5.926,21.565-0.01l14.929-14.836c10.751,5.988,22.244,10.762,34.354,14.167v20.824
	c0,4.527,1.965,8.591,5.093,11.379c2.706,2.449,6.286,3.92,10.206,3.92h55.559c8.447,0,15.299-6.852,15.299-15.299V346.83
	c12.089-3.406,23.602-8.18,34.334-14.167l14.877,14.774l0.072,0.072c5.967,5.926,15.597,5.926,21.565,0l19.898-19.764l19.312-19.198
	c6.029-5.978,6.029-15.721,0-21.709l-14.805-14.702c6.029-10.659,10.834-22.1,14.239-34.118h21.071
	c6.79,0,12.552-4.424,14.548-10.556c0.484-1.492,0.751-3.087,0.751-4.743v-54.983C405.192,159.277,398.34,152.435,389.893,152.435z
	 M216.252,265.446c-2.665,0-5.299-0.144-7.891-0.442c-35.198-3.91-62.565-33.665-62.565-69.778c0-38.789,31.545-70.23,70.457-70.23
	s70.436,31.442,70.436,70.23c0,11.945-2.994,23.201-8.282,33.058C266.553,250.404,243.166,265.446,216.252,265.446z"/>
<path style="fill:#365889;" d="M398.063,232.297l-2.027,2.017c-1.307-0.566-2.624-1.101-3.951-1.625v-2.593
	c0-16.637-13.529-30.176-30.176-30.176H319.58c-16.637,0-30.176,13.54-30.176,30.176v2.593c-1.317,0.524-2.644,1.059-3.951,1.625
	l-2.027-2.006c-1.543-1.533-3.231-2.881-5.021-4.023c-11.852,22.12-35.239,37.163-62.154,37.163c-2.665,0-5.299-0.144-7.891-0.442
	c-4.064,5.247-6.255,11.657-6.255,18.396c0,8.097,3.169,15.7,8.91,21.4l1.811,1.8c-0.535,1.245-1.06,2.49-1.564,3.745h-2.819
	c-16.636,0-30.176,13.54-30.176,30.176v38.511c2.706,2.449,6.286,3.92,10.206,3.92h55.559c8.447,0,15.299-6.852,15.299-15.299
	V346.83c12.089-3.406,23.602-8.18,34.334-14.167l14.877,14.774c5.443-12.326,17.83-20.947,32.203-20.947
	c3.23,0,6.358,0.432,9.332,1.255l19.312-19.198c6.029-5.978,6.029-15.721,0-21.709l-14.805-14.702
	c6.029-10.659,10.834-22.1,14.239-34.118h21.071c6.79,0,12.552-4.424,14.548-10.556
	C402.137,228.757,399.997,230.383,398.063,232.297z"/>
<path style="fill:#FFCB39;" d="M216.252,85.672c-60.508,0-109.554,49.046-109.554,109.554c0,58.687,46.155,106.591,104.152,109.4
	c1.79,0.092,3.591,0.134,5.401,0.134c58.923,0,106.992-46.526,109.441-104.842c0.072-1.554,0.103-3.117,0.103-4.692
	C325.795,134.718,276.749,85.672,216.252,85.672z M278.148,228.737c-11.914,21.873-35.167,36.71-61.897,36.71
	c-2.665,0-5.299-0.144-7.881-0.442h-0.01c-35.198-3.91-62.565-33.665-62.565-69.778c0-38.789,31.545-70.23,70.457-70.23
	s70.436,31.442,70.436,70.23c0,11.945-2.994,23.201-8.282,33.058C278.323,228.438,278.23,228.593,278.148,228.737z"/>
<path style="fill:#EFB82E;" d="M319.58,199.918c-16.637,0-30.176,13.54-30.176,30.176v2.593c-1.317,0.524-2.644,1.059-3.951,1.625
	l-2.027-2.006c-1.543-1.533-3.231-2.881-5.021-4.023c-0.082,0.154-0.175,0.309-0.257,0.453
	c-11.914,21.873-35.167,36.71-61.897,36.71c-2.665,0-5.299-0.144-7.881-0.442h-0.01c-4.064,5.247-6.255,11.657-6.255,18.396
	c0,8.015,3.107,15.546,8.745,21.225c1.79,0.092,3.591,0.134,5.401,0.134c58.923,0,106.992-46.526,109.441-104.842L319.58,199.918
	L319.58,199.918z"/>
<path style="fill:#4E8AD1;" d="M484.705,382.419v-41.894c0-6.438-5.219-11.657-11.657-11.657h-16.051
	c-2.595-9.16-6.259-17.872-10.85-25.995l11.281-11.206c4.589-4.558,4.589-11.98,0.001-16.539l-29.881-29.691
	c-4.546-4.517-11.885-4.517-16.431-0.001l-11.389,11.313c-8.178-4.558-16.945-8.2-26.159-10.773v-15.876
	c0-6.438-5.219-11.657-11.657-11.657h-42.33c-6.438,0-11.657,5.219-11.657,11.657v15.876c-9.225,2.573-17.981,6.215-26.17,10.773
	l-11.378-11.309c-4.546-4.518-11.887-4.519-16.433-0.001l-29.879,29.689c-4.588,4.559-4.587,11.981,0.001,16.539l11.281,11.206
	c-4.591,8.123-8.254,16.836-10.86,25.995h-16.04c-6.438,0-11.657,5.219-11.657,11.657v41.894c0,6.438,5.219,11.657,11.657,11.657
	h16.04c2.606,9.16,6.27,17.872,10.86,25.995l-11.28,11.205c-4.589,4.558-4.589,11.981,0,16.54l29.877,29.68
	c4.547,4.517,11.887,4.516,16.432-0.002l11.379-11.31c8.189,4.569,16.945,8.2,26.17,10.795v15.865
	c0,6.438,5.219,11.657,11.657,11.657h42.33c6.438,0,11.657-5.219,11.657-11.657V476.98c9.214-2.595,17.981-6.226,26.159-10.795
	l11.39,11.314c4.546,4.516,11.884,4.515,16.43,0l29.879-29.682c4.589-4.559,4.589-11.981,0-16.54l-11.28-11.205
	c4.591-8.123,8.254-16.836,10.85-25.995h16.051C479.486,394.075,484.705,388.856,484.705,382.419z M340.747,414.979
	c-29.648,0-53.682-23.956-53.682-53.507c0-29.55,24.033-53.507,53.682-53.507s53.671,23.956,53.671,53.507
	C394.418,391.022,370.395,414.979,340.747,414.979z"/>
<path style="fill:#EFEADD;" d="M340.747,278c-46.103,0-83.472,37.369-83.472,83.471c0,46.092,37.369,83.461,83.472,83.461
	c46.092,0,83.461-37.369,83.461-83.461C424.208,315.369,386.839,278,340.747,278z M340.747,414.979
	c-29.648,0-53.682-23.956-53.682-53.507c0-29.55,24.033-53.507,53.682-53.507s53.671,23.956,53.671,53.507
	C394.418,391.022,370.395,414.979,340.747,414.979z"/>
<path d="M368.204,306.972c-0.339-0.197-0.689-0.368-1.049-0.507c-8.097-3.871-17.088-6-26.407-6
	c-21.918,0-41.173,11.559-51.978,28.878c-0.281,0.38-0.523,0.778-0.723,1.193c-5.379,9.077-8.48,19.65-8.48,30.936
	c0,33.64,27.445,61.007,61.182,61.007c30.546,0,56.611-22.738,60.634-52.894c0.547-4.105-2.337-7.878-6.443-8.426
	c-4.095-0.543-7.878,2.337-8.426,6.443c-3.031,22.732-22.706,39.876-45.765,39.876c-25.464,0-46.182-20.638-46.182-46.007
	c0-5.202,0.884-10.2,2.488-14.867l6.271,6.226c4.425,4.402,10.24,6.604,16.061,6.604c5.817,0,11.639-2.2,16.076-6.601l30.241-30.056
	c7.415,4.746,13.473,11.594,17.214,19.93c1.696,3.777,6.135,5.465,9.914,3.771c3.778-1.696,5.467-6.135,3.771-9.914
	C390.734,323.487,380.564,313.171,368.204,306.972z M324.895,342.19c-3.037,3.011-7.967,3.015-10.994,0.003l-9.331-9.264
	c8.466-10.628,21.532-17.463,36.179-17.463c3.389,0,6.72,0.372,9.947,1.083L324.895,342.19z"/>
<path d="M340.747,270.5c-50.162,0-90.972,40.811-90.972,90.972c0,50.156,40.811,90.96,90.972,90.96
	c50.156,0,90.961-40.805,90.961-90.96C431.708,311.311,390.903,270.5,340.747,270.5z M340.747,437.433
	c-41.892,0-75.972-34.076-75.972-75.96c0-41.892,34.081-75.972,75.972-75.972c41.886,0,75.961,34.081,75.961,75.972
	C416.708,403.357,382.632,437.433,340.747,437.433z"/>
<path d="M473.044,321.362H462.53c-1.955-5.863-4.344-11.586-7.141-17.108l7.319-7.27c3.648-3.622,5.657-8.448,5.658-13.589
	c0.001-5.142-2.007-9.969-5.654-13.593l-29.876-29.687c-7.445-7.397-19.557-7.396-27.002-0.003l-7.481,7.431
	c-1.615-0.809-3.251-1.572-4.897-2.311c10.883-1.718,19.231-11.16,19.231-22.519v-54.991c0-12.572-10.228-22.8-22.8-22.8h-15.496
	c-2.8-8.69-6.33-17.144-10.543-25.247l10.824-10.752c4.341-4.312,6.73-10.057,6.73-16.178c-0.001-6.12-2.391-11.864-6.729-16.174
	L335.46,37.607c-8.864-8.806-23.281-8.805-32.128-0.002L292.305,48.55c-8.204-4.212-16.736-7.73-25.48-10.509V22.789
	c0-12.566-10.228-22.789-22.8-22.789h-55.551c-12.572,0-22.8,10.223-22.8,22.789v15.253c-8.736,2.774-17.271,6.294-25.485,10.509
	L129.178,37.61c-8.862-8.801-23.28-8.802-32.143,0.001L57.821,76.574c-4.339,4.317-6.728,10.065-6.725,16.185
	c0.002,6.114,2.393,11.854,6.728,16.161l10.817,10.752c-4.213,8.103-7.744,16.558-10.543,25.249H42.601
	c-12.572,0-22.8,10.228-22.8,22.8v54.991c0,12.572,10.228,22.8,22.8,22.8h15.495c2.797,8.689,6.329,17.149,10.545,25.259
	l-10.815,10.75c-4.34,4.311-6.73,10.054-6.73,16.171s2.39,11.86,6.729,16.17l7.62,7.57c1.463,1.454,3.375,2.18,5.286,2.18
	c1.927,0,3.855-0.738,5.321-2.214c2.919-2.938,2.904-7.688-0.035-10.606l-7.621-7.571c-1.483-1.474-2.3-3.437-2.3-5.528
	s0.817-4.055,2.302-5.53l14.8-14.71c2.396-2.382,2.904-6.071,1.241-9.012c-5.796-10.246-10.359-21.171-13.562-32.473
	c-0.915-3.228-3.861-5.455-7.216-5.455h-21.06c-4.301,0-7.8-3.499-7.8-7.8v-54.991c0-4.301,3.499-7.8,7.8-7.8h21.06
	c3.354,0,6.299-2.226,7.215-5.452c3.21-11.308,7.773-22.23,13.563-32.467c1.664-2.94,1.155-6.63-1.241-9.012L68.397,98.281
	c-1.483-1.474-2.3-3.437-2.301-5.527c0-2.097,0.818-4.065,2.301-5.542l39.21-38.96c3.032-3.013,7.966-3.013,10.998-0.002
	l14.94,14.85c2.37,2.355,6.013,2.857,8.936,1.233c10.385-5.782,21.39-10.317,32.71-13.479c3.241-0.905,5.482-3.858,5.482-7.224
	v-20.84c0-4.295,3.499-7.789,7.8-7.789h55.551c4.301,0,7.8,3.494,7.8,7.789v20.841c0,3.364,2.241,6.317,5.48,7.223
	c11.335,3.169,22.336,7.704,32.7,13.479c2.916,1.624,6.562,1.125,8.934-1.229l14.967-14.857c3.024-3.009,7.951-3.007,10.983,0.004
	L364.1,87.212c1.483,1.474,2.301,3.438,2.301,5.533s-0.817,4.061-2.301,5.534l-14.81,14.71c-2.397,2.382-2.906,6.072-1.243,9.014
	c5.79,10.236,10.354,21.16,13.563,32.468c0.916,3.226,3.861,5.451,7.215,5.451h21.06c4.301,0,7.8,3.499,7.8,7.8v54.991
	c0,4.301-3.499,7.8-7.8,7.8h-8.816v-0.418c0-10.563-8.594-19.157-19.157-19.157h-29.676c0.697-5.19,1.051-10.447,1.051-15.715
	c0-64.542-52.501-117.052-117.032-117.052c-42.257,0-81.382,22.904-102.109,59.775c-2.03,3.61-0.749,8.183,2.862,10.213
	c3.61,2.029,8.183,0.748,10.213-2.863c18.074-32.152,52.19-52.125,89.033-52.125c56.261,0,102.032,45.78,102.032,102.052
	c0,5.342-0.419,10.669-1.238,15.903c-9.366,1.248-16.62,9.268-16.62,18.969v10.318c-5.912,1.945-11.697,4.33-17.29,7.128
	l-5.045-5.013c10.428-13.517,16.104-30.041,16.104-47.307c0-42.855-34.965-77.721-77.941-77.721
	c-42.988,0-77.961,34.866-77.961,77.721c0,42.852,34.959,77.715,77.934,77.73c-2.011,3.079-3.1,6.672-3.1,10.439
	c0,5.14,2.008,9.966,5.654,13.59l0.224,0.223c-0.917,0.025-1.834,0.06-2.752,0.06c-56.277,0-102.062-45.776-102.062-102.042
	c0-8.67,1.09-17.284,3.241-25.604c1.037-4.01-1.374-8.102-5.384-9.139c-4.013-1.034-8.103,1.374-9.139,5.385
	c-2.468,9.544-3.719,19.422-3.719,29.357c0,64.537,52.514,117.042,117.062,117.042c2.075,0,4.149-0.074,6.221-0.183
	c-1.291,3.048-2.471,6.143-3.517,9.281h-10.514c-10.563,0-19.157,8.594-19.157,19.157v34.926h-0.813c-4.301,0-7.8-3.499-7.8-7.8
	v-20.82c0-3.361-2.236-6.312-5.472-7.221c-11.404-3.203-22.411-7.742-32.716-13.489c-2.921-1.631-6.566-1.127-8.939,1.229
	l-14.939,14.841c-3.033,3.013-7.968,3.011-11.002-0.002l-9.18-9.11c-2.94-2.919-7.689-2.901-10.606,0.04
	c-2.918,2.94-2.9,7.688,0.04,10.606l9.178,9.108c8.861,8.8,23.279,8.802,32.141,0l11.005-10.933
	c8.174,4.196,16.711,7.717,25.489,10.512v15.239c0,12.572,10.228,22.8,22.8,22.8h2.599c3.044,6.56,9.676,11.13,17.37,11.13h10.512
	c1.954,5.861,4.343,11.585,7.142,17.11l-7.316,7.27c-3.646,3.623-5.654,8.449-5.654,13.589c0,5.141,2.008,9.967,5.654,13.59
	l29.876,29.686c7.445,7.397,19.56,7.399,27.005,0l7.47-7.422c5.576,2.792,11.361,5.177,17.293,7.131v10.313
	c0,10.563,8.594,19.156,19.157,19.156h42.328c10.563,0,19.157-8.594,19.157-19.156v-10.315c5.929-1.954,11.711-4.339,17.284-7.13
	l7.479,7.428c7.444,7.396,19.558,7.393,27.002-0.003l29.878-29.687c3.646-3.624,5.654-8.452,5.653-13.593s-2.011-9.967-5.657-13.588
	l-7.319-7.27c2.799-5.525,5.188-11.249,7.141-17.109h10.513c10.563,0,19.156-8.594,19.156-19.157V340.52
	C492.2,329.956,483.607,321.362,473.044,321.362z M153.293,195.223c0-34.585,28.244-62.721,62.961-62.721
	c34.707,0,62.941,28.136,62.941,62.721c0,14.542-5,28.427-14.138,39.586c-5.804-0.878-11.938,0.878-16.398,5.309l-15.693,15.593
	c-5.414,1.483-11.026,2.243-16.711,2.243C181.537,257.953,153.293,229.813,153.293,195.223z M477.2,382.418
	c0,2.292-1.864,4.157-4.156,4.157h-16.047c-3.354,0-6.302,2.228-7.216,5.455c-2.398,8.463-5.819,16.655-10.168,24.35
	c-1.662,2.941-1.153,6.631,1.244,9.012l11.283,11.206c0.791,0.785,1.227,1.832,1.227,2.947c0,1.116-0.436,2.164-1.227,2.95
	l-29.876,29.686c-1.614,1.605-4.243,1.606-5.859,0.001l-11.393-11.314c-2.374-2.358-6.021-2.856-8.938-1.229
	c-7.731,4.313-15.985,7.717-24.53,10.116c-3.236,0.909-5.473,3.859-5.473,7.221v15.866c0,2.292-1.865,4.156-4.157,4.156h-42.328
	c-2.292,0-4.157-1.864-4.157-4.156v-15.866c0-3.362-2.237-6.313-5.475-7.222c-8.548-2.397-16.804-5.801-24.538-10.115
	c-1.146-0.64-2.402-0.95-3.651-0.95c-1.934,0-3.847,0.747-5.288,2.18l-11.384,11.311c-1.616,1.605-4.245,1.604-5.859,0
	l-29.876-29.686c-0.792-0.786-1.227-1.833-1.227-2.949c0-1.115,0.436-2.162,1.227-2.948l11.277-11.205
	c2.396-2.381,2.905-6.07,1.243-9.011c-4.348-7.693-7.769-15.886-10.167-24.35c-0.915-3.228-3.861-5.455-7.216-5.455h-16.048
	c-2.292,0-4.157-1.865-4.157-4.157v-41.898c0-2.292,1.865-4.157,4.157-4.157h16.047c3.354,0,6.3-2.227,7.215-5.453
	c2.403-8.474,5.824-16.666,10.168-24.351c1.662-2.94,1.153-6.63-1.243-9.011l-11.277-11.206c-0.792-0.786-1.227-1.833-1.227-2.949
	c0-1.114,0.436-2.161,1.227-2.947l29.876-29.687c1.615-1.604,4.245-1.605,5.86,0l11.383,11.311c2.37,2.355,6.015,2.859,8.934,1.232
	c7.78-4.33,16.036-7.731,24.537-10.106c3.24-0.906,5.481-3.859,5.481-7.224v-15.875c0-2.292,1.865-4.157,4.157-4.157h42.328
	c2.292,0,4.157,1.865,4.157,4.157v7.841c0,0.026-0.004,0.051-0.004,0.077s0.004,0.051,0.004,0.077v7.88
	c0,3.364,2.24,6.316,5.479,7.223c8.498,2.378,16.751,5.778,24.529,10.107c2.917,1.627,6.562,1.123,8.933-1.231l11.393-11.314
	c1.615-1.606,4.242-1.604,5.859,0.001l29.876,29.687c0.791,0.786,1.227,1.834,1.227,2.949s-0.436,2.162-1.228,2.948l-11.282,11.206
	c-2.397,2.381-2.906,6.07-1.244,9.012c4.344,7.686,7.766,15.879,10.168,24.351c0.916,3.227,3.862,5.453,7.216,5.453h16.047
	c2.292,0,4.156,1.865,4.156,4.157L477.2,382.418L477.2,382.418z"/>
<g>
</g>
<g>
</g>
<g>
</g>
<g>
</g>
<g>
</g>
<g>
</g>
<g>
</g>
<g>
</g>
<g>
</g>
<g>
</g>
<g>
</g>
<g>
</g>
<g>
</g>
<g>
</g>
<g>
</g>
</svg>
